<?xml version="1.0" encoding="UTF-8"?>
<svg xmlns="http://www.w3.org/2000/svg" viewBox="0 0 1200 1200"><rect width="1200" height="1200" fill="transparent"/><circle cx="301" cy="960" r="0.81" fill="white" opacity="0.441"/><circle cx="827" cy="369" r="0.6" fill="white" opacity="0.882"/><circle cx="677" cy="1087" r="0.75" fill="white" opacity="0.877"/><circle cx="495" cy="1164" r="0.65" fill="white" opacity="0.751"/><circle cx="25" cy="693" r="0.95" fill="white" opacity="0.570"/><circle cx="257" cy="720" r="0.55" fill="white" opacity="0.907"/><circle cx="629" cy="461" r="1.01" fill="white" opacity="0.884"/><circle cx="907" cy="321" r="1.05" fill="white" opacity="0.353"/><circle cx="405" cy="357" r="0.95" fill="white" opacity="0.756"/><circle cx="33" cy="897" r="0.71" fill="white" opacity="0.756"/><circle cx="493" cy="140" r="0.55" fill="white" opacity="0.798"/><circle cx="648" cy="148" r="0.76" fill="white" opacity="0.664"/><circle cx="245" cy="41" r="1.15" fill="white" opacity="0.726"/><circle cx="9" cy="745" r="1.17" fill="white" opacity="0.860"/><circle cx="940" cy="568" r="1.14" fill="white" opacity="0.701"/><circle cx="159" cy="760" r="0.75" fill="#7fe8ff" opacity="0.311"/><circle cx="644" cy="419" r="0.75" fill="#bd00ff" opacity="0.301"/><circle cx="18" cy="182" r="0.85" fill="#7fe8ff" opacity="0.336"/><circle cx="1058" cy="63" r="0.93" fill="white" opacity="0.505"/><circle cx="0" cy="488" r="0.86" fill="white" opacity="0.527"/><circle cx="405" cy="974" r="1.15" fill="white" opacity="0.793"/><circle cx="15" cy="521" r="0.65" fill="white" opacity="0.614"/><circle cx="594" cy="993" r="0.55" fill="white" opacity="0.668"/><circle cx="12" cy="726" r="1.15" fill="white" opacity="0.806"/><circle cx="184" cy="849" r="0.65" fill="white" opacity="0.667"/><circle cx="1173" cy="605" r="1.05" fill="white" opacity="0.555"/><circle cx="276" cy="449" r="0.55" fill="white" opacity="0.574"/><circle cx="1038" cy="135" r="0.55" fill="white" opacity="0.763"/><circle cx="1031" cy="781" r="0.91" fill="#7fe8ff" opacity="0.392"/><circle cx="60" cy="1070" r="0.94" fill="white" opacity="0.593"/><circle cx="625" cy="1024" r="1.46" fill="white" opacity="0.860"/><circle cx="298" cy="405" r="1.11" fill="white" opacity="0.361"/><circle cx="404" cy="759" r="1.1" fill="white" opacity="0.786"/><circle cx="981" cy="322" r="1.15" fill="white" opacity="0.887"/><circle cx="602" cy="198" r="1.15" fill="white" opacity="0.550"/><circle cx="523" cy="1176" r="1.01" fill="white" opacity="0.470"/><circle cx="464" cy="484" r="0.75" fill="white" opacity="0.541"/><circle cx="456" cy="1072" r="0.75" fill="white" opacity="0.529"/><circle cx="661" cy="97" r="1.07" fill="white" opacity="0.600"/><circle cx="64" cy="469" r="0.85" fill="white" opacity="0.743"/><circle cx="1194" cy="1058" r="0.85" fill="white" opacity="0.432"/><circle cx="552" cy="255" r="1.28" fill="white" opacity="0.862"/><circle cx="256" cy="1168" r="0.75" fill="white" opacity="0.357"/><circle cx="33" cy="529" r="0.95" fill="white" opacity="0.519"/><circle cx="783" cy="641" r="0.62" fill="white" opacity="0.615"/><circle cx="43" cy="623" r="1.15" fill="white" opacity="0.791"/><circle cx="584" cy="842" r="0.55" fill="white" opacity="0.420"/><circle cx="242" cy="19" r="0.85" fill="white" opacity="0.658"/><circle cx="170" cy="251" r="0.75" fill="white" opacity="0.713"/><circle cx="285" cy="387" r="0.55" fill="#7fe8ff" opacity="0.370"/><circle cx="559" cy="1115" r="1.15" fill="white" opacity="0.689"/><circle cx="930" cy="1092" r="0.65" fill="white" opacity="0.896"/><circle cx="361" cy="523" r="0.59" fill="white" opacity="0.825"/><circle cx="979" cy="639" r="0.65" fill="white" opacity="0.790"/><circle cx="1086" cy="959" r="1.26" fill="white" opacity="0.902"/><circle cx="18" cy="688" r="1.05" fill="white" opacity="0.888"/><circle cx="262" cy="464" r="0.95" fill="white" opacity="0.646"/><circle cx="677" cy="638" r="1.15" fill="white" opacity="0.494"/><circle cx="511" cy="83" r="1.34" fill="white" opacity="0.798"/><circle cx="912" cy="609" r="1.41" fill="#bd00ff" opacity="0.355"/><circle cx="2" cy="449" r="1.15" fill="#bd00ff" opacity="0.407"/><circle cx="677" cy="404" r="0.65" fill="white" opacity="0.366"/><circle cx="537" cy="625" r="1.05" fill="white" opacity="0.352"/><circle cx="361" cy="460" r="0.85" fill="white" opacity="0.557"/><circle cx="348" cy="901" r="0.55" fill="white" opacity="0.829"/><circle cx="743" cy="1110" r="0.85" fill="white" opacity="0.889"/><circle cx="422" cy="120" r="0.65" fill="white" opacity="0.467"/><circle cx="486" cy="261" r="0.75" fill="#7fe8ff" opacity="0.455"/><circle cx="859" cy="1072" r="0.65" fill="white" opacity="0.882"/><circle cx="953" cy="969" r="0.95" fill="#bd00ff" opacity="0.395"/><circle cx="515" cy="217" r="0.51" fill="#7fe8ff" opacity="0.304"/><circle cx="988" cy="690" r="0.85" fill="white" opacity="0.448"/><circle cx="141" cy="1191" r="0.85" fill="white" opacity="0.919"/><circle cx="29" cy="526" r="1.05" fill="white" opacity="0.899"/><circle cx="139" cy="167" r="0.55" fill="white" opacity="0.749"/><circle cx="1033" cy="647" r="1.42" fill="white" opacity="0.941"/><circle cx="802" cy="859" r="1.05" fill="#7fe8ff" opacity="0.501"/><circle cx="271" cy="732" r="1.05" fill="white" opacity="0.658"/><circle cx="440" cy="229" r="0.75" fill="white" opacity="0.474"/><circle cx="934" cy="118" r="1.07" fill="white" opacity="0.899"/></svg>
