<?xml version="1.0" encoding="UTF-8"?>
<svg xmlns="http://www.w3.org/2000/svg" viewBox="0 0 900 900"><rect width="900" height="900" fill="transparent"/><circle cx="71" cy="722" r="0.73" fill="#7fe8ff" opacity="0.403"/><circle cx="297" cy="258" r="0.96" fill="#7fe8ff" opacity="0.597"/><circle cx="37" cy="857" r="0.93" fill="white" opacity="0.826"/><circle cx="415" cy="803" r="1.31" fill="white" opacity="0.544"/><circle cx="749" cy="703" r="0.85" fill="white" opacity="0.662"/><circle cx="285" cy="757" r="0.74" fill="white" opacity="0.816"/><circle cx="312" cy="346" r="1" fill="white" opacity="0.622"/><circle cx="331" cy="138" r="1.15" fill="#7fe8ff" opacity="0.562"/><circle cx="102" cy="563" r="1.05" fill="white" opacity="0.846"/><circle cx="2" cy="285" r="0.98" fill="white" opacity="0.720"/><circle cx="675" cy="486" r="0.75" fill="white" opacity="0.949"/><circle cx="282" cy="422" r="0.85" fill="#7fe8ff" opacity="0.364"/><circle cx="525" cy="628" r="0.85" fill="white" opacity="0.802"/><circle cx="582" cy="626" r="0.61" fill="white" opacity="0.914"/><circle cx="520" cy="79" r="0.65" fill="#bd00ff" opacity="0.466"/><circle cx="399" cy="565" r="0.65" fill="#bd00ff" opacity="0.334"/><circle cx="217" cy="368" r="0.85" fill="white" opacity="0.946"/><circle cx="683" cy="686" r="1.15" fill="white" opacity="0.778"/><circle cx="663" cy="354" r="0.75" fill="white" opacity="0.903"/><circle cx="192" cy="115" r="1.29" fill="white" opacity="0.445"/><circle cx="244" cy="820" r="0.6" fill="white" opacity="0.779"/><circle cx="366" cy="255" r="0.95" fill="white" opacity="0.855"/><circle cx="355" cy="621" r="0.75" fill="white" opacity="0.517"/><circle cx="616" cy="24" r="0.85" fill="white" opacity="0.597"/><circle cx="401" cy="429" r="0.75" fill="white" opacity="0.544"/><circle cx="316" cy="629" r="1.05" fill="#7fe8ff" opacity="0.500"/><circle cx="676" cy="537" r="0.75" fill="white" opacity="0.690"/><circle cx="304" cy="815" r="0.77" fill="#7fe8ff" opacity="0.288"/><circle cx="82" cy="702" r="0.91" fill="white" opacity="0.450"/><circle cx="323" cy="508" r="0.65" fill="white" opacity="0.796"/><circle cx="176" cy="348" r="1.15" fill="white" opacity="0.830"/><circle cx="299" cy="480" r="1.22" fill="white" opacity="0.850"/><circle cx="827" cy="186" r="0.95" fill="white" opacity="0.550"/><circle cx="796" cy="349" r="0.95" fill="white" opacity="0.877"/><circle cx="649" cy="718" r="0.95" fill="white" opacity="0.824"/><circle cx="450" cy="480" r="1.15" fill="#7fe8ff" opacity="0.334"/><circle cx="298" cy="106" r="0.65" fill="white" opacity="0.913"/><circle cx="618" cy="86" r="1" fill="white" opacity="0.618"/><circle cx="638" cy="365" r="0.6" fill="white" opacity="0.844"/><circle cx="130" cy="173" r="0.55" fill="white" opacity="0.863"/><circle cx="532" cy="353" r="0.61" fill="white" opacity="0.940"/><circle cx="871" cy="782" r="1.26" fill="white" opacity="0.402"/><circle cx="73" cy="168" r="0.85" fill="white" opacity="0.635"/><circle cx="207" cy="874" r="0.65" fill="#7fe8ff" opacity="0.419"/><circle cx="705" cy="615" r="1.15" fill="white" opacity="0.758"/><circle cx="371" cy="494" r="0.75" fill="white" opacity="0.710"/><circle cx="467" cy="359" r="1.15" fill="white" opacity="0.731"/><circle cx="899" cy="807" r="0.96" fill="white" opacity="0.933"/><circle cx="815" cy="787" r="0.55" fill="#bd00ff" opacity="0.426"/><circle cx="96" cy="114" r="0.85" fill="white" opacity="0.646"/><circle cx="735" cy="17" r="0.55" fill="white" opacity="0.819"/><circle cx="754" cy="171" r="1.15" fill="white" opacity="0.574"/><circle cx="286" cy="47" r="1.05" fill="white" opacity="0.831"/><circle cx="63" cy="631" r="0.95" fill="white" opacity="0.589"/><circle cx="331" cy="653" r="0.65" fill="white" opacity="0.487"/><circle cx="192" cy="707" r="0.83" fill="white" opacity="0.743"/><circle cx="576" cy="9" r="1.05" fill="#bd00ff" opacity="0.461"/><circle cx="356" cy="716" r="1.05" fill="#bd00ff" opacity="0.380"/><circle cx="329" cy="615" r="0.75" fill="white" opacity="0.731"/><circle cx="274" cy="782" r="1.05" fill="white" opacity="0.812"/><circle cx="815" cy="581" r="0.55" fill="white" opacity="0.444"/><circle cx="882" cy="504" r="0.55" fill="white" opacity="0.604"/><circle cx="775" cy="786" r="0.51" fill="#7fe8ff" opacity="0.345"/><circle cx="171" cy="472" r="0.65" fill="white" opacity="0.714"/><circle cx="37" cy="632" r="0.85" fill="white" opacity="0.806"/><circle cx="109" cy="184" r="0.95" fill="#7fe8ff" opacity="0.532"/><circle cx="677" cy="315" r="0.75" fill="white" opacity="0.666"/><circle cx="430" cy="725" r="0.95" fill="white" opacity="0.889"/><circle cx="706" cy="150" r="0.95" fill="white" opacity="0.820"/><circle cx="695" cy="389" r="1.16" fill="white" opacity="0.625"/><circle cx="463" cy="396" r="1.21" fill="white" opacity="0.736"/><circle cx="104" cy="322" r="1.15" fill="#7fe8ff" opacity="0.246"/><circle cx="670" cy="289" r="1.43" fill="white" opacity="0.845"/><circle cx="134" cy="11" r="1.15" fill="white" opacity="0.457"/><circle cx="809" cy="87" r="0.55" fill="white" opacity="0.831"/><circle cx="849" cy="484" r="1.15" fill="white" opacity="0.738"/><circle cx="390" cy="355" r="0.75" fill="white" opacity="0.740"/><circle cx="217" cy="419" r="0.65" fill="white" opacity="0.697"/><circle cx="144" cy="690" r="0.65" fill="white" opacity="0.780"/><circle cx="127" cy="522" r="0.95" fill="#7fe8ff" opacity="0.284"/><circle cx="852" cy="247" r="0.85" fill="white" opacity="0.461"/><circle cx="4" cy="118" r="0.65" fill="white" opacity="0.460"/><circle cx="523" cy="170" r="1.27" fill="white" opacity="0.575"/><circle cx="94" cy="206" r="0.85" fill="white" opacity="0.521"/><circle cx="501" cy="298" r="1.36" fill="white" opacity="0.872"/><circle cx="862" cy="637" r="1.15" fill="#7fe8ff" opacity="0.372"/><circle cx="771" cy="795" r="0.85" fill="white" opacity="0.660"/><circle cx="466" cy="736" r="0.65" fill="white" opacity="0.532"/><circle cx="172" cy="459" r="0.85" fill="white" opacity="0.606"/><circle cx="615" cy="121" r="0.75" fill="white" opacity="0.685"/><circle cx="297" cy="467" r="0.72" fill="white" opacity="0.598"/><circle cx="767" cy="842" r="0.85" fill="#7fe8ff" opacity="0.185"/><circle cx="498" cy="723" r="1.05" fill="#7fe8ff" opacity="0.412"/><circle cx="318" cy="446" r="1.15" fill="#7fe8ff" opacity="0.493"/><circle cx="762" cy="604" r="0.87" fill="white" opacity="0.720"/><circle cx="449" cy="124" r="0.55" fill="white" opacity="0.853"/><circle cx="546" cy="81" r="1.15" fill="white" opacity="0.433"/><circle cx="343" cy="723" r="0.91" fill="white" opacity="0.780"/><circle cx="751" cy="826" r="1.05" fill="white" opacity="0.911"/><circle cx="665" cy="63" r="0.91" fill="white" opacity="0.588"/><circle cx="803" cy="27" r="1.25" fill="white" opacity="0.522"/><circle cx="74" cy="314" r="0.86" fill="white" opacity="0.426"/><circle cx="789" cy="21" r="1.15" fill="white" opacity="0.827"/><circle cx="13" cy="510" r="0.66" fill="white" opacity="0.882"/><circle cx="184" cy="883" r="1.15" fill="#bd00ff" opacity="0.239"/><circle cx="220" cy="149" r="1.16" fill="#7fe8ff" opacity="0.201"/><circle cx="801" cy="633" r="0.65" fill="white" opacity="0.625"/><circle cx="544" cy="680" r="0.95" fill="white" opacity="0.706"/><circle cx="186" cy="414" r="0.75" fill="white" opacity="0.363"/><circle cx="834" cy="249" r="0.55" fill="#7fe8ff" opacity="0.312"/><circle cx="854" cy="587" r="0.85" fill="#7fe8ff" opacity="0.508"/><circle cx="178" cy="385" r="0.55" fill="white" opacity="0.611"/><circle cx="855" cy="655" r="1.32" fill="#bd00ff" opacity="0.366"/><circle cx="263" cy="603" r="1.1" fill="white" opacity="0.501"/><circle cx="149" cy="121" r="1.03" fill="white" opacity="0.909"/><circle cx="354" cy="161" r="0.73" fill="white" opacity="0.385"/><circle cx="188" cy="894" r="1.05" fill="white" opacity="0.357"/><circle cx="280" cy="653" r="0.85" fill="white" opacity="0.445"/><circle cx="183" cy="358" r="1.05" fill="white" opacity="0.791"/><circle cx="576" cy="252" r="0.55" fill="white" opacity="0.938"/><circle cx="229" cy="138" r="0.95" fill="white" opacity="0.663"/><circle cx="519" cy="579" r="0.75" fill="white" opacity="0.699"/><circle cx="702" cy="44" r="0.75" fill="#bd00ff" opacity="0.338"/><circle cx="596" cy="869" r="1.15" fill="white" opacity="0.415"/><circle cx="280" cy="472" r="1.05" fill="white" opacity="0.826"/><circle cx="100" cy="700" r="0.65" fill="white" opacity="0.938"/><circle cx="695" cy="391" r="0.55" fill="white" opacity="0.850"/><circle cx="200" cy="889" r="1.43" fill="white" opacity="0.749"/><circle cx="320" cy="669" r="0.85" fill="white" opacity="0.470"/><circle cx="767" cy="44" r="0.65" fill="white" opacity="0.760"/><circle cx="890" cy="18" r="0.59" fill="white" opacity="0.600"/><circle cx="496" cy="230" r="0.65" fill="white" opacity="0.694"/><circle cx="532" cy="248" r="0.65" fill="#7fe8ff" opacity="0.278"/><circle cx="891" cy="344" r="1.37" fill="white" opacity="0.903"/><circle cx="316" cy="871" r="0.85" fill="white" opacity="0.791"/><circle cx="850" cy="67" r="1.19" fill="white" opacity="0.880"/><circle cx="735" cy="237" r="1.15" fill="#bd00ff" opacity="0.271"/><circle cx="719" cy="777" r="0.95" fill="white" opacity="0.787"/><circle cx="105" cy="508" r="0.85" fill="white" opacity="0.651"/><circle cx="258" cy="533" r="1.07" fill="#bd00ff" opacity="0.415"/></svg>
